<svg width="60" height="60" xmlns="http://www.w3.org/2000/svg">
  <g fill="#38a89d" fill-rule="nonzero">
    <path d="M41.25 0h-22.5C8.396 0 0 8.396 0 18.75v22.5C0 51.604 8.396 60 18.75 60h22.5C51.604 60 60 51.604 60 41.25v-22.5C60 8.396 51.604 0 41.25 0zm13.125 41.25c0 7.237-5.888 13.125-13.125 13.125h-22.5c-7.238 0-13.125-5.888-13.125-13.125v-22.5c0-7.238 5.887-13.125 13.125-13.125h22.5c7.237 0 13.125 5.887 13.125 13.125v22.5z"/>
    <path d="M30 15c-8.284 0-15 6.716-15 15 0 8.284 6.716 15 15 15 8.284 0 15-6.716 15-15 0-8.284-6.716-15-15-15zm0 24.375c-5.168 0-9.375-4.208-9.375-9.375 0-5.171 4.207-9.375 9.375-9.375 5.167 0 9.375 4.204 9.375 9.375 0 5.167-4.208 9.375-9.375 9.375z"/>
    <circle cx="46.125" cy="13.875" r="1.999"/>
  </g>
</svg>