<?xml version="1.0" encoding="UTF-8"?>
<svg width="74px" height="60px" viewBox="0 0 74 60" version="1.1" xmlns="http://www.w3.org/2000/svg" xmlns:xlink="http://www.w3.org/1999/xlink">
    <!-- Generator: Sketch 49 (51002) - http://www.bohemiancoding.com/sketch -->
    <title>twitter-logo-silhouette (1)</title>
    <desc>Created with Sketch.</desc>
    <defs></defs>
    <g id="Symbols" stroke="none" stroke-width="1" fill="none" fill-rule="evenodd">
        <g id="Icon-/-Social-Media" fill="#38a89d" fill-rule="nonzero">
            <g id="Group-7">
                <g id="twitter-logo-silhouette-(1)" transform="translate(0.299405, 0.000000)">
                    <path d="M73.588608,7.13951807 C70.8801384,8.34204819 67.9739896,9.15759036 64.9205433,9.52168675 C68.0383195,7.65096386 70.424899,4.68373494 71.5560233,1.15891566 C68.6314773,2.8913253 65.4033182,4.14927711 61.963652,4.83120482 C59.2092497,1.88698795 55.2913778,0.0531325301 50.9458021,0.0531325301 C42.6088862,0.0531325301 35.8491954,6.82626506 35.8491954,15.1751807 C35.8491954,16.3592771 35.9825447,17.5157831 36.2401048,18.6216867 C23.695652,17.9903614 12.5721086,11.9683133 5.12727424,2.81759036 C3.82588616,5.04771084 3.08555109,7.64626506 3.08555109,10.4201205 C3.08555109,15.6681928 5.75265716,20.2987952 9.79930914,23.0079518 C7.32531305,22.9250602 4.99849417,22.2431325 2.9614605,21.1096386 L2.9614605,21.2985542 C2.9614605,28.6245783 8.16689257,34.7387952 15.0690711,36.1303614 C13.8044773,36.4713253 12.4709844,36.660241 11.0914385,36.660241 C10.11663,36.660241 9.17392622,36.563494 8.24961963,36.3791566 C10.1717012,42.3920482 15.7450763,46.7645783 22.3484514,46.8844578 C17.1843829,50.9391566 10.6729935,53.3489157 3.60067135,53.3489157 C2.38213058,53.3489157 1.18186671,53.2751807 0.000120242823,53.1415663 C6.68165321,57.4404819 14.613952,59.946988 23.1394087,59.946988 C50.9092483,59.946988 66.0887023,36.8998795 66.0887023,16.9122892 L66.0380801,14.9540964 C69.0039896,12.8344578 71.5698512,10.1713253 73.588608,7.13951807 Z" id="Shape"></path>
                </g>
            </g>
        </g>
    </g>
</svg>