<svg width="74" height="60" xmlns="http://www.w3.org/2000/svg">
  <path d="M73.888 7.14a30.1 30.1 0 0 1-8.668 2.382 15.183 15.183 0 0 0 6.635-8.363 30.397 30.397 0 0 1-9.592 3.672A15.04 15.04 0 0 0 51.245.053c-8.337 0-15.096 6.773-15.096 15.122 0 1.184.133 2.34.39 3.447-12.544-.632-23.667-6.654-31.112-15.804a15.034 15.034 0 0 0-2.042 7.602c0 5.248 2.667 9.879 6.714 12.588A15.074 15.074 0 0 1 3.26 21.11v.189c0 7.326 5.205 13.44 12.107 14.831-1.264.341-2.598.53-3.977.53-.975 0-1.918-.097-2.842-.28 1.922 6.012 7.495 10.385 14.099 10.504A30.25 30.25 0 0 1 3.9 53.35a32.02 32.02 0 0 1-3.6-.207 42.61 42.61 0 0 0 23.139 6.805c27.77 0 42.95-23.047 42.95-43.035l-.052-1.958a30.178 30.178 0 0 0 7.551-7.814z" fill="#38a89d" fill-rule="nonzero"/>
</svg>