<?xml version="1.0" encoding="UTF-8"?>
<svg width="61px" height="60px" viewBox="0 0 61 60" version="1.1" xmlns="http://www.w3.org/2000/svg" xmlns:xlink="http://www.w3.org/1999/xlink">
    <!-- Generator: Sketch 49 (51002) - http://www.bohemiancoding.com/sketch -->
    <title>facebook-logo</title>
    <desc>Created with Sketch.</desc>
    <defs></defs>
    <g id="Symbols" stroke="none" stroke-width="1" fill="none" fill-rule="evenodd">
        <g id="Icon-/-Social-Media" transform="translate(-241.000000, 0.000000)" fill="#38a89d" fill-rule="nonzero">
            <g id="Group-7">
                <g id="facebook-logo" transform="translate(241.320132, 0.000000)">
                    <path d="M59.8809261,10.0006667 C59.8809261,4.746 55.1463409,0 49.9007717,0 L9.98015435,0 C4.73458522,0 0,4.746 0,10.0006667 L0,49.9993333 C0,55.254 4.73458522,60 9.98081969,60 L29.940463,60 L29.940463,37.3333333 L22.6216832,37.3333333 L22.6216832,27.3333333 L29.940463,27.3333333 L29.940463,23.4373333 C29.940463,16.718 34.9757836,10.6666667 41.1681367,10.6666667 L49.2354281,10.6666667 L49.2354281,20.6666667 L41.1681367,20.6666667 C40.2852257,20.6666667 39.2552738,21.7406667 39.2552738,23.3493333 L39.2552738,27.3333333 L49.2354281,27.3333333 L49.2354281,37.3333333 L39.2552738,37.3333333 L39.2552738,60 L49.9007717,60 C55.1463409,60 59.8809261,55.254 59.8809261,49.9993333 L59.8809261,10.0006667 Z" id="Facebook__x28_alt_x29_"></path>
                </g>
            </g>
        </g>
    </g>
</svg>